<?xml version="1.0" encoding="UTF-8"?>
<svg id="Layer_1" data-name="Layer 1" xmlns="http://www.w3.org/2000/svg" xmlns:xlink="http://www.w3.org/1999/xlink" viewBox="0 0 381.45 139.7">
  <defs>
    <style>
      .cls-1 {
        fill: #fcc93d;
      }

      .cls-2 {
        fill: url(#linear-gradient-2);
      }

      .cls-3 {
        fill: #0075b6;
      }

      .cls-4 {
        fill: #375fa2;
      }

      .cls-5 {
        mask: url(#mask-2);
      }

      .cls-6 {
        fill: url(#linear-gradient-6);
      }

      .cls-7 {
        mask: url(#mask-3);
      }

      .cls-8 {
        mask: url(#mask-5);
      }

      .cls-9 {
        fill: #1d305b;
      }

      .cls-10 {
        mask: url(#mask-8);
      }

      .cls-11 {
        mask: url(#mask-4);
      }

      .cls-12 {
        fill: url(#linear-gradient-5);
      }

      .cls-13 {
        fill: #ffc93c;
      }

      .cls-14 {
        mask: url(#mask-6);
      }

      .cls-15 {
        fill: url(#linear-gradient-7);
      }

      .cls-16 {
        fill: #7d7e6a;
      }

      .cls-17 {
        fill: #c89e3f;
      }

      .cls-18 {
        mask: url(#mask-1);
      }

      .cls-19 {
        mask: url(#mask);
      }

      .cls-20 {
        fill: url(#linear-gradient-3);
      }

      .cls-21 {
        fill: url(#linear-gradient);
      }

      .cls-22 {
        mask: url(#mask-7);
      }

      .cls-23 {
        fill: #010202;
      }

      .cls-24 {
        fill: #1b3b6b;
      }

      .cls-25 {
        fill: url(#linear-gradient-4);
      }

      .cls-26 {
        fill: #2e306d;
      }
    </style>
    <linearGradient id="linear-gradient" x1="-104" y1="321.8" x2="-104" y2="305.2" gradientTransform="translate(412.6 356.1) scale(1 -1)" gradientUnits="userSpaceOnUse">
      <stop offset="0" stop-color="#0e234b"/>
      <stop offset="1" stop-color="#144c8e"/>
    </linearGradient>
    <mask id="mask" x="212.7" y="21.35" width="89.9" height="103.95" maskUnits="userSpaceOnUse"/>
    <mask id="mask-1" x="212.7" y="21.35" width="89.9" height="103.95" maskUnits="userSpaceOnUse"/>
    <linearGradient id="linear-gradient-2" x1="-101.06" y1="317.95" x2="-111.69" y2="289.5" gradientTransform="translate(340.8 345) scale(1 -1)" gradientUnits="userSpaceOnUse">
      <stop offset="0" stop-color="#11437f"/>
      <stop offset="1" stop-color="#0e234b"/>
    </linearGradient>
    <mask id="mask-2" x="212.7" y="21.35" width="89.9" height="103.95" maskUnits="userSpaceOnUse"/>
    <mask id="mask-3" x="212.7" y="21.35" width="89.9" height="103.95" maskUnits="userSpaceOnUse"/>
    <mask id="mask-4" x="212.7" y="21.35" width="89.9" height="103.95" maskUnits="userSpaceOnUse"/>
    <linearGradient id="linear-gradient-3" x1="-88.35" y1="298.51" x2="-71.57" y2="317.56" gradientTransform="translate(279.85 319.9) scale(1 -1)" gradientUnits="userSpaceOnUse">
      <stop offset="0" stop-color="#1a60a8"/>
      <stop offset="1" stop-color="#0e234b"/>
    </linearGradient>
    <mask id="mask-5" x="101.25" y="14.5" width="108.3" height="113.9" maskUnits="userSpaceOnUse"/>
    <mask id="mask-6" x="101.25" y="14.5" width="108.3" height="113.9" maskUnits="userSpaceOnUse"/>
    <linearGradient id="linear-gradient-4" x1="-129.39" y1="308.03" x2="-127.11" y2="287.93" gradientTransform="translate(240.35 343.2) scale(1 -1)" gradientUnits="userSpaceOnUse">
      <stop offset="0" stop-color="#0e234d"/>
      <stop offset="1" stop-color="#1a60a8"/>
    </linearGradient>
    <mask id="mask-7" x="101.25" y="14.5" width="108.3" height="113.9" maskUnits="userSpaceOnUse"/>
    <mask id="mask-8" x="101.25" y="14.5" width="108.3" height="113.9" maskUnits="userSpaceOnUse"/>
    <linearGradient id="linear-gradient-5" x1="-91.39" y1="282.63" x2="-82.69" y2="266.8" gradientTransform="translate(187.5 361.2) scale(1 -1)" gradientUnits="userSpaceOnUse">
      <stop offset="0" stop-color="#0f3f78"/>
      <stop offset="1" stop-color="#0e234b"/>
    </linearGradient>
    <linearGradient id="linear-gradient-6" x1="-89.99" y1="296.75" x2="-76.34" y2="262.53" gradientTransform="translate(125.85 364.65) scale(1 -1)" gradientUnits="userSpaceOnUse">
      <stop offset="0" stop-color="#144a8c"/>
      <stop offset="1" stop-color="#0e234b"/>
    </linearGradient>
    <linearGradient id="linear-gradient-7" x1="-123.38" y1="314.44" x2="-106.15" y2="288.54" gradientTransform="translate(125.85 364.65) scale(1 -1)" gradientUnits="userSpaceOnUse">
      <stop offset="0" stop-color="#0e234d"/>
      <stop offset="1" stop-color="#1a60a8"/>
    </linearGradient>
  </defs>
  <g id="Layer7_0_FILL" data-name="Layer7 0 FILL">
    <path class="cls-23" d="M366.2,115.9h-.05c-1.33,0-2.47,.47-3.4,1.4-.93,.93-1.4,2.07-1.4,3.4s.47,2.52,1.4,3.45c.93,.93,2.07,1.4,3.4,1.4s2.47-.47,3.4-1.4c.93-.93,1.4-2.08,1.4-3.45,0-1.33-.47-2.47-1.4-3.4-.93-.93-2.05-1.4-3.35-1.4m-.05,.75h.05c1.07,0,1.97,.4,2.7,1.2,.77,.8,1.15,1.77,1.15,2.9,0,1.13-.38,2.1-1.15,2.9-.73,.8-1.63,1.18-2.7,1.15-1.07,0-1.98-.4-2.75-1.2s-1.15-1.77-1.15-2.9c0-1.13,.38-2.08,1.15-2.85,.73-.8,1.63-1.2,2.7-1.2m1.8,5.55c-.17-.8-.47-1.23-.9-1.3v-.05c.7-.27,1.05-.7,1.05-1.3,0-.5-.17-.88-.5-1.15-.37-.27-.93-.4-1.7-.4-.53,0-1.03,.05-1.5,.15v5.35h.85v-2.3h.6c.67,0,1.05,.32,1.15,.95,.17,.8,.3,1.25,.4,1.35h.85c-.17-.47-.27-.9-.3-1.3m-2.7-1.65v-1.8l.6-.1c.9,0,1.35,.32,1.35,.95,0,.63-.45,.95-1.35,.95h-.6Z"/>
  </g>
  <g>
    <g id="N_BAckground_0_Layer0_0_FILL" data-name="N BAckground 0 Layer0 0 FILL">
      <path class="cls-1" d="M355.95,48.2l-7.8,32.4-7.6-36.15-22.7-4.6-.35,6.25,5,1.3-5.95,62.3,13.2,2.1,6.05-34.3,1.05,44.5,12.1,3.55,24.3-73.55-17.3-3.8Z"/>
    </g>
    <g id="N_Shadows_0_Layer0_0_FILL" data-name="N Shadows 0 Layer0 0 FILL">
      <path class="cls-17" d="M340.55,44.45l-22.7-4.6-.2,3.65,19.8,4,7.65,36.15,3.05-3.05-7.6-36.15m-4.75,33.05l-3.05,3.05-5.45,30.85,2.45,.4,6.05-34.3m19.3-25.75l15.05,3.3-23.1,69.95,1.9,.55,24.3-73.55-17.3-3.8-.85,3.55Z"/>
    </g>
    <g id="N_Edge_0_Layer0_0_FILL" data-name="N Edge 0 Layer0 0 FILL">
      <path class="cls-26" d="M317.15,52.35l-5.95,3.3-7.5,62.9,6.4-3.4h.05l7-62.8Z"/>
      <path class="cls-9" d="M311.95,51.2l-6.45,3.3,5.7,1.15,5.95-3.3-5.2-1.2v.05m39.9-10.5l-4.7,2.55,1.9,9.05,2.8-11.6Z"/>
      <path class="cls-21" d="M305.25,35.3l.25,19.2,6.45-3.3v-.05l-.25-19.35-6.45,3.5Z"/>
      <path class="cls-24" d="M353.05,133.55l-21.85-6.85-.15-8.6-20.9-2.95h-.05l-6.4,3.4,20.95,3,.2,8.5,21.7,6.9,6.5-3.4Z"/>
    </g>
    <g id="N_Border_0_Layer0_0_FILL" data-name="N Border 0 Layer0 0 FILL">
      <path class="cls-4" d="M381.45,47.9l-29.6-7.2-2.8,11.6-2.6-12.8-34.75-7.7,.2,19.35,5.25,1.2-7.05,62.8,20.95,2.95,.15,8.6,21.85,6.85,28.4-85.65m-33.3,32.7l7.8-32.4,17.3,3.8-24.3,73.55-12.1-3.55-1.05-44.5-6.05,34.3-13.2-2.1,5.95-62.3-5-1.3,.35-6.25,22.7,4.6,7.6,36.15Z"/>
    </g>
  </g>
  <g>
    <g id="O_2_Background_0_Layer0_0_FILL" data-name="O 2 Background 0 Layer0 0 FILL">
      <path class="cls-1" d="M322.7,71.95c-.47-1.8-1.15-3.47-2.05-5-1.2-1.97-2.73-3.6-4.6-4.9-2.53-1.83-5.47-2.92-8.8-3.25-2.53-.27-5.1-.08-7.7,.55-.9,.23-1.82,.52-2.75,.85-3.07,1.2-5.83,2.9-8.3,5.1-2.07,1.9-3.85,4.12-5.35,6.65-3.07,5.33-3.98,10.62-2.75,15.85,1.03,4.37,3.28,7.78,6.75,10.25,2.03,1.5,4.37,2.5,7,3,1.77,.37,3.57,.48,5.4,.35,2.2-.17,4.43-.68,6.7-1.55,2.2-.8,4.18-1.85,5.95-3.15,2.4-1.7,4.47-3.75,6.2-6.15,2.03-2.77,3.43-5.75,4.2-8.95,.8-3.3,.83-6.52,.1-9.65Z"/>
    </g>
    <g id="O_2_Shadows_0_Layer0_0_FILL" data-name="O 2 Shadows 0 Layer0 0 FILL">
      <path class="cls-17" d="M305.9,85.5c2.2-1.23,4.15-3.02,5.85-5.35-.03,0-.07,.02-.1,.05-.37,.37-.75,.73-1.15,1.1-2.27,1.97-4.98,2.88-8.15,2.75-1-.03-1.93-.17-2.8-.4-1.93-.53-3.62-1.53-5.05-3-2.1-2.17-2.98-4.7-2.65-7.6,.3-2.9,.95-4.82,1.95-5.75,1-.97,1.02-1.1,.05-.4-1,.67-2.13,1.98-3.4,3.95-1.23,2.03-1.88,3.83-1.95,5.4-.13,2.97,.87,5.52,3,7.65,2.1,2.1,4.72,3.22,7.85,3.35h.2c2.1,.07,4.22-.52,6.35-1.75m11.65-15.5c.93,1.53,1.62,3.22,2.05,5.05,.77,3.07,.75,6.27-.05,9.6-.77,3.17-2.18,6.17-4.25,9l-1.25,1.6c4.43-3.87,7.4-7.5,8.9-10.9,3.57-8.13,1.28-16.22-6.85-24.25-6.17-2.03-11.68-2.5-16.55-1.4-2.17,.47-4.22,1.25-6.15,2.35-2,1.13-3.78,2.55-5.35,4.25-1.2,1.57-1.87,2.42-2,2.55,2.4-2,4.95-3.52,7.65-4.55,1.97-.73,3.92-1.22,5.85-1.45,1.57-.17,3.12-.18,4.65-.05,3.3,.37,6.23,1.47,8.8,3.3,1.93,1.4,3.45,3.03,4.55,4.9m-7.1,4c1.4-1.13,2.13-2.53,2.2-4.2,0-.57-.05-1.08-.15-1.55-.2,.23-1.23,1.23-3.1,3,.13,.43,.2,.97,.2,1.6-.03,.6-.2,1.28-.5,2.05,.47-.27,.92-.57,1.35-.9m-5.05-10.6h-.15l-.6,.05c-1.43,.2-2.68,.78-3.75,1.75-.33,.3-.63,.63-.9,1-.17,.23-.32,.5-.45,.8-.03,.07-.07,.13-.1,.2,.03,0,.07-.02,.1-.05,.9-.43,1.82-.65,2.75-.65,.03,.1,1.07-.93,3.1-3.1Z"/>
    </g>
    <g id="O_2_Edge_0_Layer0_0_FILL" data-name="O 2 Edge 0 Layer0 0 FILL">
      <path class="cls-9" d="M294.5,54.8c.63-.23,1.27-.45,1.9-.65-1.6,.33-3.18,.85-4.75,1.55-2.57,1.07-4.9,2.4-7,4-1.83,1.27-3.67,3.07-5.5,5.4-3.17,3.77-5.37,7.97-6.6,12.6-.77,2.63-1.13,5.23-1.1,7.8-.03,1.93,.18,3.87,.65,5.8,.77,3.4,2.12,6.47,4.05,9.2,1.9,2.63,4.28,4.73,7.15,6.3l1.8,.9c2.13,.9,4.3,1.5,6.5,1.8,.93,.03,1.88,.08,2.85,.15,.4-.03,.88-.05,1.45-.05,2.77-.13,5.58-.75,8.45-1.85,.83-.37,1.8-.85,2.9-1.45,1.43-.67,2.75-1.43,3.95-2.3-1.07,.53-2.02,.95-2.85,1.25-2.97,1.1-5.9,1.73-8.8,1.9-1.5,.07-2.98,.02-4.45-.15-2.27-.23-4.55-.83-6.85-1.8l-1.85-.85c-2.97-1.57-5.47-3.67-7.5-6.3-2-2.67-3.4-5.68-4.2-9.05-1.03-4.27-.88-8.68,.45-13.25,1.3-4.43,3.53-8.47,6.7-12.1,1.87-2.17,3.73-3.85,5.6-5.05,2.1-1.5,4.45-2.77,7.05-3.8Z"/>
    </g>
    <g id="O_2_Border_0_Layer0_0_FILL" data-name="O 2 Border 0 Layer0 0 FILL">
      <path class="cls-4" d="M321.4,59.1c-1.03-1.1-2.57-2.2-4.6-3.3-.1,0-.15-.03-.15-.1-3.27-1.7-6.82-2.63-10.65-2.8-2.17-.1-4.32,.07-6.45,.5-1.7,.3-3.38,.77-5.05,1.4-2.6,1.03-4.95,2.3-7.05,3.8-1.87,1.2-3.73,2.88-5.6,5.05-3.17,3.63-5.4,7.67-6.7,12.1-1.33,4.57-1.48,8.98-.45,13.25,.8,3.37,2.2,6.38,4.2,9.05,2.03,2.63,4.53,4.73,7.5,6.3l1.85,.85c2.3,.97,4.58,1.57,6.85,1.8,1.47,.17,2.95,.22,4.45,.15,2.9-.17,5.83-.8,8.8-1.9,.87-.3,1.87-.75,3-1.35,2.37-1.1,4.42-2.45,6.15-4.05,4.37-3.7,7.53-8.17,9.5-13.4,2-5.37,2.38-10.62,1.15-15.75-1.1-4.67-3.35-8.53-6.75-11.6m-5.35,2.95c1.87,1.3,3.4,2.93,4.6,4.9,.9,1.53,1.58,3.2,2.05,5,.73,3.13,.7,6.35-.1,9.65-.77,3.2-2.17,6.18-4.2,8.95-1.73,2.4-3.8,4.45-6.2,6.15-1.77,1.3-3.75,2.35-5.95,3.15-2.27,.87-4.5,1.38-6.7,1.55-1.83,.13-3.63,.02-5.4-.35-2.63-.5-4.97-1.5-7-3-3.47-2.47-5.72-5.88-6.75-10.25-1.23-5.23-.32-10.52,2.75-15.85,1.5-2.53,3.28-4.75,5.35-6.65,2.47-2.2,5.23-3.9,8.3-5.1,.93-.33,1.85-.62,2.75-.85,2.6-.63,5.17-.82,7.7-.55,3.33,.33,6.27,1.42,8.8,3.25m-11.4,1.4l.6-.05h.1c-.43-.1-1.12-.18-2.05-.25-1.33-.07-2.58,.07-3.75,.4-1.63,.4-3.1,1.17-4.4,2.3-.13,.13-.27,.25-.4,.35-2,1.83-3.07,4.08-3.2,6.75-.13,2.97,.85,5.53,2.95,7.7,1.43,1.47,3.12,2.47,5.05,3,.87,.23,1.8,.37,2.8,.4,3.17,.13,5.88-.78,8.15-2.75,.4-.37,.78-.73,1.15-1.1,1.53-1.8,2.35-3.92,2.45-6.35,.1-1.9-.42-3.75-1.55-5.55-.03-.03-.05-.07-.05-.1-.03,0-.05-.02-.05-.05,0,.04,.02,.07,.05,.1,.1,.47,.15,.98,.15,1.55-.07,1.67-.8,3.07-2.2,4.2-.43,.33-.88,.63-1.35,.9-1.07,.5-2.25,.73-3.55,.7-1.9-.07-3.5-.72-4.8-1.95-.5-.5-.9-1.03-1.2-1.6-.43-.87-.63-1.8-.6-2.8,.03-.83,.23-1.6,.6-2.3,.13-.27,.28-.52,.45-.75,.27-.37,.57-.7,.9-1,1.07-.97,2.32-1.55,3.75-1.75Z"/>
    </g>
  </g>
  <g>
    <g class="cls-19">
      <g id="M_Background_0_Layer0_0_FILL" data-name="M Background 0 Layer0 0 FILL">
        <path class="cls-13" d="M265.2,31.9l-4.65,26.1-4.1-22.5h-16.45l-7.45,44.35v-.05l-2.3,13.65,16.35,2.85,3.85-24.45h.1l9.8,21.1,6.55-16.9,4.6,30.65,17.4,2.65-11.95-77.45h-11.75Z"/>
      </g>
    </g>
    <g class="cls-18">
      <g id="M_Edge_0_Layer0_0_FILL" data-name="M Edge 0 Layer0 0 FILL">
        <path class="cls-24" d="M250.5,103.15l2.35,6.8,5.05-2.75,1,8.3,31.55,5.6,6.3-3.5-31.45-5.55-1.6-14-4.4,8.5-7.25-13.35-1.55,9.95m-34.15-1.05l27.8,4.45,6.35-3.4-27.75-4.35-6.4,3.3Z"/>
        <path class="cls-2" d="M234.1,29.3l-6.3,3.45-11.45,69.35,6.4-3.3,11.35-69.5Z"/>
        <path class="cls-3" d="M258.45,29.3l.75-3.85-7.45,3.85h6.7Z"/>
      </g>
    </g>
    <g class="cls-5">
      <g id="M_Shadows_0_Layer0_0_FILL" data-name="M Shadows 0 Layer0 0 FILL">
        <path class="cls-17" d="M259.3,90.75l1.05,2.2,6.55-16.9-3.1,3.1-4.5,11.6m-11.9-15.85l-3.35,21,2.55,.4,3.85-24.5-3.05,3.1m-7.4-39.4l-.55,3.05h13.95l4.1,22.5,3.05-3.05-4.1-22.5h-16.45m36.95-3.6h-11.75l-.55,3.1h9.25l11.15,73.85,3.85,.5-11.95-77.45Z"/>
      </g>
    </g>
    <g class="cls-7">
      <g id="M_Shadow_0_Layer0_0_FILL" data-name="M Shadow 0 Layer0 0 FILL">
        <path class="cls-17" d="M278.8,66.75c-3.17,3.63-5.4,7.65-6.7,12.05-1.33,4.57-1.48,9-.45,13.3,.8,3.37,2.2,6.37,4.2,9,2,2.63,4.5,4.73,7.5,6.3,.63,.37,1.25,.67,1.85,.9l3.7,1.05-7.05-45.7c-.87,.83-1.88,1.87-3.05,3.1Z"/>
      </g>
    </g>
    <g class="cls-11">
      <g id="M_Border_0_Layer0_0_FILL" data-name="M Border 0 Layer0 0 FILL">
        <path class="cls-4" d="M265.3,112.05l31.45,5.55-14.55-92.1h-23.1l-.65,3.8h-24.35l-11.35,69.5,27.75,4.35,1.55-9.95,7.25,13.35,4.4-8.5,1.6,14m-4.75-54.05l4.65-26.1h11.75l11.95,77.45-17.4-2.65-4.6-30.65-6.55,16.9-9.8-21.1h-.1l-3.85,24.45-16.35-2.85,2.3-13.65v.05l7.45-44.35h16.45l4.1,22.5Z"/>
      </g>
    </g>
  </g>
  <g>
    <g id="E_Background_0_Layer0_0_FILL" data-name="E Background 0 Layer0 0 FILL">
      <path class="cls-1" d="M197.45,40.1c-4.4,1.07-8.22,2.9-11.45,5.5-.43,.3-.85,.63-1.25,1-.03,.03-.07,.07-.1,.1-1,.87-1.92,1.83-2.75,2.9-.3,.33-.58,.7-.85,1.1-1.87,2.6-3.1,5.5-3.7,8.7-.63,3.3-.53,6.75,.3,10.35,.33,1.23,.7,2.3,1.1,3.2v.05c1.83,4.27,4.92,7.58,9.25,9.95,.13,.07,.27,.13,.4,.2,1.83,.97,3.75,1.7,5.75,2.2,1.13,.27,2.28,.47,3.45,.6,2.03,.23,4.17,.23,6.4,0,1.7-.17,3.28-.43,4.75-.8,.33-.07,.67-.15,1-.25,6.7-1.7,12.32-4.43,16.85-8.2,1.3-1.07,2.47-2.15,3.5-3.25l-11.05-9.95c-1.5,1.73-2.92,3.08-4.25,4.05-1.8,1.3-3.85,2.23-6.15,2.8-2.37,.57-4.18,.73-5.45,.5l21.25-22.65c-3.07-3.73-6.92-6.33-11.55-7.8-4.83-1.5-9.98-1.6-15.45-.3m-2.2,15.8s.07-.08,.1-.15c1.1-1.2,2.45-1.98,4.05-2.35,1.5-.33,2.97-.23,4.4,.3,.07,0,.13,.02,.2,.05l-9.7,11.05c-.8-1.43-1.12-2.98-.95-4.65,.2-1.6,.83-3.02,1.9-4.25m23.1-36l-7.6-10.35-15.65,18.85,1.5,2.3,21.75-10.8Z"/>
    </g>
    <g id="E_Edges_0_Layer0_0_FILL" data-name="E Edges 0 Layer0 0 FILL">
      <path class="cls-9" d="M190.3,35.45l-4.45-5.45-6.55,3.35,4.4,5.1c-.2,.1-.38,.2-.55,.3-7.57,4.27-12.47,10.17-14.7,17.7-1.8,6.03-1.8,12.15,0,18.35,1.37,4.2,3.85,8.12,7.45,11.75,6.37,6.43,14.4,9.68,24.1,9.75,8.5-.27,15.98-3.05,22.45-8.35,.57-.5,1.12-1.02,1.65-1.55-.2,.1-.4,.2-.6,.3l-2.8,1.35c-4.3,1.87-8.67,3.23-13.1,4.1-1.23,.23-2.43,.38-3.6,.45-1.6,.2-3.75,.2-6.45,0-5.17-.5-9.8-2.02-13.9-4.55-4.37-2.73-7.68-6.25-9.95-10.55-1.33-2.5-2.22-5-2.65-7.5-.6-3.13-.75-6.18-.45-9.15,1-7.43,4.05-13.65,9.15-18.65,1.3-1.23,2.72-2.35,4.25-3.35,1.93-1.3,4.03-2.43,6.3-3.4Z"/>
      <path class="cls-20" d="M211.85,0l-6.35,3.3-26.2,30.05,6.55-3.35L211.85,0Z"/>
    </g>
    <g id="E_Edge_0_Layer0_0_FILL" data-name="E Edge 0 Layer0 0 FILL">
      <path class="cls-16" d="M204,53.75c-.07-.03-.13-.05-.2-.05-1.43-.53-2.9-.63-4.4-.3-1.6,.37-2.95,1.15-4.05,2.35-.03,.03-.05,.07-.05,.1,.63-.2,1.33-.35,2.1-.45,1.77-.2,3.37-.07,4.8,.4l1.8-2.05Z"/>
    </g>
    <g id="E_Shadows_0_Layer0_0_FILL" data-name="E Shadows 0 Layer0 0 FILL">
      <path class="cls-17" d="M189,61.6c-.13-3.03,.72-5.68,2.55-7.95,.3-.73,.65-1.45,1.05-2.15-3.53,2.83-5.4,6.3-5.6,10.4-.2,3.83,1.07,7.12,3.8,9.85,.13,.13,.3,.27,.5,.4l2.3-1.6c-.27-.2-.48-.38-.65-.55-2.47-2.27-3.78-5.07-3.95-8.4m30.05,1.9c-2,2.03-3.02,3.07-3.05,3.1l10.9,9.85c1.17-1,2.23-2,3.2-3l-11.05-9.95m-3.4,3.4c-.3,.23-.58,.45-.85,.65-1.8,1.3-3.85,2.23-6.15,2.8-2.37,.57-4.18,.73-5.45,.5l-3,3.2c1.23,.13,3.02-.08,5.35-.65,2.23-.53,4.23-1.42,6-2.65,1.37-.97,2.73-2.25,4.1-3.85m-5.8-23.4c4.67,1.47,8.53,4.12,11.6,7.95l3-3.25c-3.07-3.73-6.92-6.33-11.55-7.8-4.83-1.5-9.98-1.6-15.45-.3-4.4,1.07-8.22,2.9-11.45,5.5-.43,.3-.85,.63-1.25,1-.03,.03-.07,.07-.1,.1-.77,.67-1.48,1.38-2.15,2.15l-.25,.35c3.37-2.9,7.42-4.9,12.15-6,5.5-1.33,10.65-1.23,15.45,.3m8.5-23.6l-7.6-10.35-2.85,3.4,6.55,8.9,3.9-1.95Z"/>
    </g>
    <g id="E_Border_0_Layer0_0_FILL" data-name="E Border 0 Layer0 0 FILL">
      <path class="cls-4" d="M226.25,21.5L211.85,0l-26,30,4.45,5.45c-4.1,1.73-7.62,3.98-10.55,6.75-5.1,5-8.15,11.22-9.15,18.65-.3,2.97-.15,6.02,.45,9.15,.43,2.5,1.32,5,2.65,7.5,2.27,4.3,5.58,7.82,9.95,10.55,4.1,2.53,8.73,4.05,13.9,4.55,2.7,.2,4.85,.2,6.45,0,2-.13,4.1-.47,6.3-1,5.67-1.33,10.62-3.28,14.85-5.85,2.7-1.43,5.23-3.35,7.6-5.75l7.1-7.2-5.1-4.6v-.05l-5.85-5.3v.05l-4.55-4.1,6.3-6.7v.1l2.45-2.65c-.27-.87-.78-1.87-1.55-3l-2-2.5c-2.93-3.6-6.47-6.38-10.6-8.35-4.13-1.97-8.58-3-13.35-3.1l20.65-11.1m-15.5-11.95l7.6,10.35-21.75,10.8-1.5-2.3,15.65-18.85m-24.75,36.05c3.3-2.63,7.12-4.47,11.45-5.5,5.47-1.3,10.62-1.2,15.45,.3,4.63,1.47,8.48,4.07,11.55,7.8l-21.25,22.65c1.27,.23,3.08,.07,5.45-.5,2.3-.57,4.35-1.5,6.15-2.8,1.33-.97,2.75-2.32,4.25-4.05l11.05,9.95c-1.03,1.1-2.2,2.18-3.5,3.25-4.6,3.77-10.22,6.5-16.85,8.2l-1,.25c-1.47,.37-3.05,.63-4.75,.8-2.07,.2-4.2,.2-6.4,0-1.03-.1-2.18-.3-3.45-.6-1.9-.47-3.82-1.2-5.75-2.2l-.4-.2c-4.3-2.3-7.38-5.62-9.25-9.95v-.05c-.37-.83-.73-1.9-1.1-3.2-.83-3.6-.93-7.05-.3-10.35,.6-3.2,1.83-6.1,3.7-8.7,.17-.27,.45-.63,.85-1.1,.97-1.2,1.88-2.17,2.75-2.9l.1-.1,1.25-1m6.2,7.25c-.23,.27-.45,.53-.65,.8-1.83,2.27-2.68,4.92-2.55,7.95,.17,3.33,1.48,6.13,3.95,8.4,.17,.17,.38,.35,.65,.55,.17,.13,.38,.28,.65,.45l15.95-18.05-.85-.85c-2.47-2.27-5.38-3.33-8.75-3.2-3.33,.17-6.13,1.48-8.4,3.95m11.6,.85c.07,0,.13,.02,.2,.05l-9.7,11.05c-.8-1.43-1.12-2.98-.95-4.65,.2-1.6,.83-3.02,1.9-4.25,.03-.03,.07-.08,.1-.15,1.1-1.2,2.45-1.98,4.05-2.35,1.5-.33,2.97-.23,4.4,.3Z"/>
    </g>
  </g>
  <g>
    <g class="cls-8">
      <g id="K_Background_0_Layer0_0_FILL" data-name="K Background 0 Layer0 0 FILL">
        <path class="cls-1" d="M174.8,46.9l-15.3-14.55-15.6,21.95-1.3-21.9-21.2,6.35,.25,5.65,5.95-1.5,5.6,66.9,13.2-1.8-.05-26.75,51.05,25.55v-20.3l-43.95-17.1,21.35-22.5Z"/>
      </g>
    </g>
    <g class="cls-14">
      <g id="K_Edge_0_Layer0_0_FILL" data-name="K Edge 0 Layer0 0 FILL">
        <path class="cls-24" d="M152.4,91.6v6.55l45.05,22.35,6.4-3.45h-.05l-51.4-25.45Z"/>
        <path class="cls-9" d="M149.65,27.8l-.2,9.35,7.8-14.95-6.4,3.45-1.2,2.15m-40.35,28.25l6.05-1.5,6,66.2,24.5-3.65,6.55-3.4-24.6,3.6-6.15-66.15-5.95,1.5-6.4,3.4Z"/>
        <path class="cls-25" d="M114.85,33.9l-6.45,3.5,.9,18.65,6.4-3.4-.85-18.75Z"/>
      </g>
    </g>
    <g class="cls-22">
      <g id="K_Shadows_0_Layer0_0_FILL" data-name="K Shadows 0 Layer0 0 FILL">
        <path class="cls-17" d="M143.35,108.45l3.05-.45-.05-26.75-3.1,3.2,.1,24m.55-54.2l-1.3-21.85-21.2,6.35,.05,2.1,18.1-5.35,1.3,23,3.05-4.25m26.5,26.15c2.27,4.27,5.58,7.77,9.95,10.5,4.27,2.6,8.92,4.12,13.95,4.55v9.8l3.1,1.55v-20.3l-43.95-17.1-2.85,3.05,19.8,7.95m1.5-30.45l2.9-3.05-15.3-14.55-2.5,3.55,14.9,14.05Z"/>
      </g>
    </g>
    <g class="cls-10">
      <g id="K_Border_0_Layer0_0_FILL" data-name="K Border 0 Layer0 0 FILL">
        <path class="cls-4" d="M163.75,67.05l20.8-20.45-27.3-24.4-7.8,14.95,.3-14.4-34.9,11.15,.85,18.75,5.95-1.5,6.15,66.15,24.6-3.6v-22.1l51.4,25.45v-34.55l-40.05-15.45m-4.25-34.7l15.3,14.55-21.35,22.5,43.95,17.1v20.3l-51.05-25.55,.05,26.75-13.2,1.8-5.6-66.9-5.95,1.5-.25-5.65,21.2-6.35,1.3,21.9,15.6-21.95Z"/>
      </g>
    </g>
  </g>
  <g>
    <g id="O_1_Edge_0_Layer0_0_FILL" data-name="O 1 Edge 0 Layer0 0 FILL">
      <path class="cls-12" d="M132.5,84.9v-.9c-.4,5.07-2.2,9.82-5.4,14.25-3.3,4.63-7.57,8.07-12.8,10.3-6.6,2.8-12.82,2.98-18.65,.55-5.8-2.47-9.58-6.85-11.35-13.15-1.7-6.03-.83-12.22,2.6-18.55,3.4-6.3,8.32-10.83,14.75-13.6,4.03-1.7,8.07-2.4,12.1-2.1,3.27,.2,6.23,1.07,8.9,2.6-3.57-2.67-7.6-4.18-12.1-4.55-.67-.13-1.27-.18-1.8-.15h-.4c-4.3-.17-8.52,.7-12.65,2.6-7.97,3.4-13.92,9.08-17.85,17.05-2.73,5.13-4.02,10.25-3.85,15.35,.03,2.4,.47,4.88,1.3,7.45,2.3,7.43,6.92,12.57,13.85,15.4,3.1,1.23,6.35,1.85,9.75,1.85,3.8-.1,7.77-.93,11.9-2.5,6.03-2.7,10.98-6.7,14.85-12,4.07-5.67,6.35-11.73,6.85-18.2-.03-.47-.03-.8,0-1v-.7Z"/>
    </g>
    <g id="O_1_Background_0_Layer0_0_FILL" data-name="O 1 Background 0 Layer0 0 FILL">
      <path class="cls-1" d="M130.2,76.85c-1.2-4.27-3.57-7.58-7.1-9.95-2.77-1.9-5.92-2.97-9.45-3.2-3.7-.27-7.4,.38-11.1,1.95-5.93,2.53-10.47,6.7-13.6,12.5-3.17,5.83-3.97,11.53-2.4,17.1,1.63,5.8,5.12,9.83,10.45,12.1,5.37,2.23,11.1,2.07,17.2-.5,4.8-2.07,8.72-5.23,11.75-9.5,3.17-4.37,4.85-9.08,5.05-14.15,.07-1.63-.08-3.28-.45-4.95l-.35-1.4Z"/>
    </g>
    <g id="O_1_Shadows_0_Layer0_0_FILL" data-name="O 1 Shadows 0 Layer0 0 FILL">
      <path class="cls-17" d="M108.45,70.85c-.53,.5-.93,1.05-1.2,1.65-.03,.07-.07,.13-.1,.2,.77-.4,1.63-.63,2.6-.7-.03,0,.98-1.03,3.05-3.1-1.73,.17-3.18,.82-4.35,1.95m5.05,20.45c2.5-1.27,4.53-3.15,6.1-5.65-.3,.3-.6,.6-.9,.9-2.17,2.03-4.8,3.07-7.9,3.1h-.15c-3.13,0-5.78-1.03-7.95-3.1-2.2-2.07-3.3-4.58-3.3-7.55v-.05c0-2.8,1.1-5.2,3.3-7.2,.11-.11,.22-.21,.35-.3-2.12,1.43-3.77,3.11-4.95,5.05-1.17,1.87-1.75,3.73-1.75,5.6,0,2.93,1.13,5.45,3.4,7.55,2.23,2.1,4.92,3.15,8.05,3.15,1.87,0,3.77-.5,5.7-1.5m13.95-11.45l.35,1.4c.3,1.77,.43,3.43,.4,5-.13,5-1.82,9.78-5.05,14.35-.17,.2-.3,.38-.4,.55,1.13-1.13,2.2-2.4,3.2-3.8,3.17-4.37,4.85-9.08,5.05-14.15,.07-1.63-.08-3.28-.45-4.95l-.35-1.4c-1.2-4.27-3.57-7.58-7.1-9.95-2.77-1.9-5.92-2.97-9.45-3.2-3.7-.27-7.4,.38-11.1,1.95-3.73,1.6-6.9,3.83-9.5,6.7,1.93-1.53,4.08-2.83,6.45-3.9,3.7-1.57,7.42-2.22,11.15-1.95,3.6,.27,6.82,1.35,9.65,3.25,3.6,2.47,5.98,5.83,7.15,10.1m-10,.15c.3-.2,.6-.43,.9-.7,1.33-1.2,2-2.63,2-4.3,0-.57-.08-1.1-.25-1.6-.23,.33-1.25,1.35-3.05,3.05,.17,.57,.25,1.1,.25,1.6,0,.8-.18,1.57-.55,2.3,.23-.1,.47-.22,.7-.35Z"/>
    </g>
    <g id="O_1_Border_0_Layer0_0_FILL" data-name="O 1 Border 0 Layer0 0 FILL">
      <path class="cls-4" d="M122.55,60.65c-3.4-1.53-7.05-2.28-10.95-2.25-3.93,.03-7.78,.85-11.55,2.45-2.3,1.03-4.38,2.23-6.25,3.6-7.77,5.93-12.32,13.47-13.65,22.6-.47,3.5-.22,6.9,.75,10.2,.97,3.47,2.55,6.53,4.75,9.2,2.2,2.67,4.88,4.77,8.05,6.3,3.4,1.67,7.1,2.5,11.1,2.5,4,0,7.92-.83,11.75-2.5,3.73-1.53,7.13-3.82,10.2-6.85,2.17-2,4.02-4.37,5.55-7.1,2.1-3.57,3.45-7.3,4.05-11.2,.63-4,.43-7.87-.6-11.6-1.2-4.13-3.28-7.68-6.25-10.65-1.93-1.97-4.25-3.53-6.95-4.7m-8.9,3.05c3.53,.23,6.68,1.3,9.45,3.2,3.53,2.37,5.9,5.68,7.1,9.95l.35,1.4c.37,1.67,.52,3.32,.45,4.95-.2,5.07-1.88,9.78-5.05,14.15-3.03,4.27-6.95,7.43-11.75,9.5-6.1,2.57-11.83,2.73-17.2,.5-5.33-2.27-8.82-6.3-10.45-12.1-1.57-5.57-.77-11.27,2.4-17.1,3.13-5.8,7.67-9.97,13.6-12.5,3.7-1.57,7.4-2.22,11.1-1.95m-.85,5.2c-.87-.13-1.55-.2-2.05-.2-3.17,0-5.85,1.02-8.05,3.05-2.2,2-3.3,4.42-3.3,7.25s1.1,5.48,3.3,7.55c2.17,2.07,4.82,3.1,7.95,3.1,3.17,0,5.85-1.03,8.05-3.1,2.17-2.07,3.25-4.58,3.25-7.55,0-2.1-.62-3.97-1.85-5.6,.17,.5,.25,1.03,.25,1.6,0,1.67-.67,3.1-2,4.3-1.33,1.2-2.95,1.8-4.85,1.8-1.9,0-3.52-.6-4.85-1.8-1.33-1.2-2-2.63-2-4.3s.6-2.98,1.8-4.15c1.17-1.13,2.62-1.78,4.35-1.95Z"/>
    </g>
  </g>
  <g>
    <g id="P_Edge_0_Layer0_0_FILL" data-name="P Edge 0 Layer0 0 FILL">
      <path class="cls-6" d="M17,80.3l6.4-2.75,27.4,62.15,26-8.4,6.45-4.25-26.05,8.3-28.5-63.55-6.4,3.15-5.3,5.35Z"/>
      <path class="cls-15" d="M22.3,74.95L5.25,46.15,0,51.55l17,28.75,5.3-5.35Z"/>
    </g>
    <g id="P_Background_0_Layer0_0_FILL" data-name="P Background 0 Layer0 0 FILL">
      <path class="cls-13" d="M86.3,50.55c-2-4.67-5.43-8.38-10.3-11.15-3.07-2.03-6.73-3.28-11-3.75-5.27-.93-11.02-.93-17.25,0-6.43,.93-13,2.83-19.7,5.7-4.93,2.1-9.45,4.45-13.55,7.05l10.45,17.65,7.1-3.5,28.9,64.45,14.05-4.5-8.7-33.35c8.27-5.1,14.32-11.37,18.15-18.8,3.77-7.37,4.38-13.97,1.85-19.8m-15.65,12.85c.3,1.63,.3,3.15,0,4.55-.63,1.63-2.05,3.4-4.25,5.3l-3.55-11.1c-.53-1.57-.83-2.48-.9-2.75,2.17-.4,4.1-.22,5.8,.55,1.67,.87,2.63,2.02,2.9,3.45m-7.85-1.65c.13,.33,.18,.4,.15,.2-.03-.03-.08-.17-.15-.4v.2Z"/>
    </g>
    <g id="P_Shadow_0_Layer0_0_FILL" data-name="P Shadow 0 Layer0 0 FILL">
      <path class="cls-16" d="M70.65,63.4c-.27-1.43-1.23-2.58-2.9-3.45-1.7-.77-3.63-.95-5.8-.55,.2,.7,.4,1.4,.6,2.1,1.13,.17,2.02,.38,2.65,.65,1.7,.67,2.67,1.82,2.9,3.45,.57,2.83,.33,5.17-.7,7,1.53-1.47,2.62-3.02,3.25-4.65,.3-1.4,.3-2.92,0-4.55Z"/>
    </g>
    <g id="P_Shadows_0_Layer0_0_FILL" data-name="P Shadows 0 Layer0 0 FILL">
      <path class="cls-17" d="M62.95,91.5l8.6,32.1,3.45-1.1-8.7-33.3-3.35,2.3m-6.8-34.55l-2.25,1.9,7.5,24.65c1.67-1.1,3.3-2.32,4.9-3.65-.83,.57-1.72,1.15-2.65,1.75l-7.5-24.65m16.75-14.45c4.8,2.67,8.25,6.38,10.35,11.15,1.83,4.2,2,8.95,.5,14.25-1.33,4.7-3.82,9.2-7.45,13.5,3.37-3.37,6.08-7.05,8.15-11.05,3.77-7.37,4.38-13.97,1.85-19.8-2-4.67-5.43-8.38-10.3-11.15-3.07-2.03-6.73-3.28-11-3.75-5.27-.93-11.02-.93-17.25,0-6.43,.93-13,2.83-19.7,5.7-4.93,2.1-9.45,4.45-13.55,7.05l.55,.9c3.17-1.83,6.48-3.47,9.95-4.9,6.67-2.83,13.23-4.73,19.7-5.7,6.2-.93,11.95-.93,17.25,0,4.27,.53,7.92,1.8,10.95,3.8Z"/>
    </g>
    <g id="P_Border_0_Layer0_0_FILL" data-name="P Border 0 Layer0 0 FILL">
      <path class="cls-4" d="M87.3,39.7c-2.2-2.43-4.72-4.43-7.55-6-4-2.63-8.52-4.23-13.55-4.8-6.03-1.07-12.57-1.07-19.6,0-7.03,1.07-14.12,3.12-21.25,6.15-5.4,2.33-10.25,4.87-14.55,7.6l-5.55,3.5,17.05,28.8,6.4-3.15,28.5,63.55,26.05-8.3-9.1-34.95c2.3-1.7,4.3-3.38,6-5.05,6.4-6.6,10.95-14.13,13.65-22.6,1.37-6.1,.95-11.63-1.25-16.6-1.3-3-3.05-5.72-5.25-8.15m-11.3-.3c4.87,2.77,8.3,6.48,10.3,11.15,2.53,5.83,1.92,12.43-1.85,19.8-2.07,4-4.78,7.68-8.15,11.05-2.87,2.83-6.2,5.42-10,7.75v.05l8.7,33.3-14.05,4.5L32.05,62.55l-7.1,3.5-10.45-17.65c4.1-2.6,8.62-4.95,13.55-7.05,6.7-2.87,13.27-4.77,19.7-5.7,6.23-.93,11.98-.93,17.25,0,4.27,.47,7.93,1.72,11,3.75m-7.5,16.1c-3.87-1.33-7.9-.88-12.1,1.35-.1,.03-.18,.07-.25,.1l7.5,24.65c.93-.6,1.82-1.18,2.65-1.75,2.83-2.07,4.93-3.98,6.3-5.75,2.53-3.33,3.4-7.12,2.6-11.35-.67-3.57-2.9-5.98-6.7-7.25m-5.2,7.75c-.1-.43-.22-.87-.35-1.3-.17-.6-.35-1.22-.55-1.85,1.93-.37,3.65-.2,5.15,.5,1.5,.77,2.37,1.78,2.6,3.05,.27,1.47,.27,2.82,0,4.05-.1,.4-.23,.78-.4,1.15-.6,1.47-1.72,2.93-3.35,4.4l-3.1-10Z"/>
    </g>
  </g>
</svg>